<svg xmlns="http://www.w3.org/2000/svg" viewBox="0 0 1400 1914"><defs><style>.a{fill:none}.b{clip-path:url(#a)}.c{fill:#f5f0eb}</style><clipPath id="a"><path class="a" d="M1 1H1398V1915H1z"/></clipPath></defs><g class="b"><path class="c" d="M416.29 174.91c-2.93.09 0-11.71 0-11.71.16-.1.32-.18.47-.29 4.9-.1 9.69-.43 14.16-.64 18.5-.92 37.55-4 54.34-12.11 25-12.16 50.41-37.66 48.75-67.47a.65.65 0 0 0-1.19-.27c-.78 1.62-1.67 3.08-2.51 4.63-15.72 13.26-24.16 28-45.75 33.49-10.15 2.59-20 3-29.83 2.91a159 159 0 0 0 20.63-44.31c5.33-9.68 8.55-21.15 11.46-30.67a229.42 229.42 0 0 0 9.9-67 191.59 191.59 0 0 0-11.56-66.17c-8.88-24.85-18.29-52.89 6.13-72a.85.85 0 0 0-.48-1.56c-14.24-.22-23.18 11.62-26.76 24.42A55.14 55.14 0 0 0 458.9-114c-1.14 14.08 2.65 28 3.35 42-.87-2.13-1.8-4.32-2.72-6.51a257.39 257.39 0 0 0-13.1-29.72c-7.94-15.82-16.79-33.61-28.33-48.2a255.81 255.81 0 0 0-39.9-67.31 195.51 195.51 0 0 0-12.2-19.47c-17.54-24.75-41.49-43.09-63-64-17.81-17.28-43.31-53.43-18.62-76.19 10.33-9.58 27.39-11.52 39.66-4.74 14.1 7.8 16.41 21.58 21.9 35.14a.46.46 0 0 0 .8.16c7.48-9.74 4.2-25.45-1.23-35.46a48.64 48.64 0 0 0-37.4-25c-35.46-3.71-61.28 29.49-57.57 62.9 1.94 17.43 9 31.58 18.67 44.12a391.94 391.94 0 0 0-14.58-6.46A388.35 388.35 0 0 0 199-331c-12.22-3-24.32-6.51-36.22-5.6-67.9-43.9-149-64.62-231.57-63.27-9.8-1.67-19.53-3.45-29.22-5.65-26.31-6.08-70.81-15.07-64.89-51.6a1.58 1.58 0 0 0-2.69-1.4c-23.19 27.22 13.83 54.4 36.75 62.36.65.21 1.34.43 2 .7a514.14 514.14 0 0 0-132 35.83c-12.11 3.55-23.89 8.56-34.49 13-25.67 11-50.63 23.62-76.84 33.42-49.82 18.67-102.66 20.28-145.7-14.64a1.78 1.78 0 0 0-2.69 2.26c23.24 39.17 73.28 46.7 115.68 41.11-4.63 3.87-9.09 7.85-13.56 11.89-18.72 16.84-36.8 35.08-58.16 48.69-11.14 7.11-22.92 13.35-35.57 17.33-12.91 4.09-25.72 3.71-38.85 6-.86.17-1.45 1.51-.43 2 18.62 8.17 43.53 1.5 61.72-5.22a163.85 163.85 0 0 0 19.77-9C-517.38-139.87-538.68-41-536 44.43A414.81 414.81 0 0 0-506.23 187c10.46 25.8 24.23 57.59 43.55 81.68.53 2.78 1.08 5.56 1.78 8.32a486.11 486.11 0 0 0 19.9 72.62c11.79 32.71 27.87 63 44.71 93.24 6.14 17.49 10.76 35.52 12.16 54 1.73 22.28.43 49.07-20.5 62.58-10.6 6.89-24.37 7.59-34.16-1-5.65-5.06-9.79-12.16-8.34-20.07 2.58-13.78 22.49-18.94 27.6-3.07a1.19 1.19 0 0 0 2.31-.43c.7-11.14-8-19.53-19.31-18-12.32 1.66-20.61 14-20.5 25.88.16 11.51 4.95 20 12.16 25.5 12.05 12.86 34.06 16.46 50.25 7.75 19.64-10.55 32.39-34 33.68-57a162.28 162.28 0 0 1 6.25 32 196.46 196.46 0 0 1 .86 19.81c-2.48 21.62-10.71 41.48-34.17 48.63-25.59 7.8-48.85-3-68.34-18.42-4.19-3.32-14.63-15.8-16-18.43-.22-.49-1.08-.22-1 .37 3.39 30.65 22.62 62.92 51.63 75.08-19.69-5.75-40.8-21.4-50-30.05-21.3-20-39.47-45.37-50.63-72.53-.6-1.46-2.88-.94-2.43.67.1.36.23.72.34 1.08-.43.09-9.68 22.22-11.16 33.59-6.56 34.93 9.74 76.46 28.37 103.27 10.27 14.85 25.66 33.9 43.42 46.38-10.22-.32-20.39.06-30.62-.16-7.37-.16-14.79-.86-22.11-.05-1.82.22-2.91 1.15-2.31 4.57.43 1.08.8 2.21 1.23 3.34 8 16.78 25.83 28.46 42.56 34.92a151.21 151.21 0 0 0 81 7.42 139.63 139.63 0 0 0 40.3-13.61c-.75.86-1.51 1.72-2.31 2.58-11.3 11.78-22.92 23.14-36.91 31.8-5.28 3.28-31.8 15.23-32.07 15.34 2.69 1 8.55 3 8.82 2.9 37.94 12.7 80 16 119.23 8 64.14-13 105.14-53.38 127.52-105.41a58.17 58.17 0 0 0 6.41 14.58c10.49 16.95 35 28 52.29 13.72 11.63-9.63 13.24-26.58 2.37-37a.76.76 0 0 0-1.13 1c8 12-1.34 27-14.9 26.74a27.7 27.7 0 0 1-22.22-12.54c-11.25-16.73-6.73-39.17-5-57.84.91-9.42 1.56-18.94 1.77-28.52.38-4.3.75-8.61 1-13 11.62-6.18 21.52-18.67 28.09-28.08 12.69-18.19 20.6-39.76 23.78-61.61 7.26-49.88-9.26-98.62-26.37-144.79-5.86-15.87-12.16-32.23-17.54-48.91a199.33 199.33 0 0 0 13.35 22.76c15.92 23.19 46.59 46.6 71.93 21.09 15.45-15.55 12.76-53.53-14.31-54.82-.48-.06-.7.64-.32 1 9.15 8.4 17.65 16.47 15.44 30.24-2.31 14.75-18.67 22.87-32.23 17.65-20.39-7.91-32.55-41.64-39.54-60.15-9.58-25.45-19.75-63.71-13.78-94.92a66 66 0 0 0 9.63-6.34 74.31 74.31 0 0 1 37.56-7.86c27.92 1.4 49.23 16.46 70.86 32.77 22.06 16.68 45.3 29 73.18 32a123.79 123.79 0 0 0 25.55 0C20.34 347-44.94 440.72-63.72 574.39-83.82 717.37-43 839-5.23 915.89c37.29 75.87 78.17 123.38 86.66 132.84l.94 1.15c54.64 75 77.47 116.67 51.18 173.06-21.63 46.41-74.83 145.54-121.76 233l-14.95 27.88c-41.06 22.2-71 74.55-82.73 117.52-3.1 11.4-6.46 28.17-5 43.86a72.15 72.15 0 0 0 .66 15.46 99 99 0 0 0 2.4 11.18l.59 1.79a84.48 84.48 0 0 0 7.22 14.13 93 93 0 0 0 66.64 41.51 112.75 112.75 0 0 0 18.22.63c25.75-1.13 51.13-10.44 71.53-17.91 2.44-.89 4.94-1.78 7.53-2.7 10-3.52 20.9-7.4 31.42-12.44 9.91-3.59 19.72-7.32 29.42-11l12.08-4.59c37.71-14.34 76.54-29 116.34-36.14A169 169 0 0 1 291 1644c48.12 0 90.55 4.15 128.4 11.21 67.36 18.09 134.62 50 204.62 97 8.52 5.72 17 11.55 25.67 17.61q10.2 8.19 20.35 16.42c24.79 20.07 50.43 40.82 77.49 60.36 2.19 1.58 5.25 4 9 6.92 38.41 30 82.65 60.69 119.81 60.69 1 0 1.92 0 2.87-.07a55.22 55.22 0 0 0 12.78-2c16.21-4.6 27.7-11.36 36.15-21.25a50.55 50.55 0 0 0 4-4.81 57.83 57.83 0 0 0 6.37-11.21c7-10.36 10.14-21.57 11.67-27 23-82.91-56.75-245.48-117.12-295.73-52.66-104.08-130.47-213-153-241-18.64-23.22-16.63-31.69-16.54-32 1-3.55 8.59-8.09 22.66-13.49l6.3-2.42c16.09-6.2 27.7-10.68 51.32-17 16.75-3.32 32.5-7 46.89-11.1q16.53 9.15 32.91 18.15l33.21 18.3 8.22-22.13c9.53-25.54 10-56.33 1.51-81.86 6.84-9.39 14.5-19.49 23.17-30.93 60.79-80.16 152.33-200.88 204.13-404.4 25.75-29.54 29.08-69.6 24.89-89.79l-4.7-22.71-21.91 7.62c-18.39 6.39-41.83 12.41-69.74 17.92-16.51-22.76-60.18-85.89-88.79-127.56-9.72-63.32-46.6-136-99-195-45.1-50.72-122.26-115-233.73-133.18 0 0-90.17-19.48-184.54-14.48M-509.7 6c.76-3.66 1.56-7.32 2.59-10.87a191.84 191.84 0 0 1 13.88-34.76c12.64-24.3 31.15-43.67 53.23-59.76.7-.48.16-1.72-.65-1.34-24.69 11-45.19 29.38-60.9 51.28a394.3 394.3 0 0 1 14.09-48.86c4.47-4.73 8.51-10.06 13-14.53a187.17 187.17 0 0 1 28.25-23.35c20.29-13.4 43.1-22.38 66.83-27.49.75-.16.48-1.4-.22-1.35a176.72 176.72 0 0 0-70.4 23.08A242 242 0 0 0-477.2-124a385.19 385.19 0 0 1 22.55-43.47c5-8.4 10.54-16.63 16.24-24.59 5.28-4.09 10.5-8.23 16-11.79a160.89 160.89 0 0 1 40-18.5 157.31 157.31 0 0 1 45.84-7c15.39 0 29.43 4.47 44.5 6.3a.8.8 0 0 0 .54-1.46c-25.4-17.11-66.13-16-94.75-9.79a173.14 173.14 0 0 0-23.73 7c8-8.88 16.35-17.44 25.12-25.56q4.44-4.12 9-8.07c4.31-3.23 8.61-6.67 13.13-10.23.76-.53 1.51-1.07 2.26-1.66 4.36-2.69 8.72-5.33 13.24-7.59 18.78-9.52 38.74-16.52 59.08-22.11 20.6-5.71 41.1-11.3 62.63-11.84a329.24 329.24 0 0 1 68.92 5.59c.65.11 1-.86.43-1.07a259.14 259.14 0 0 0-112.18-16.68A283.46 283.46 0 0 1-204.89-343c27-3.65 54.67-4.68 81.68-1.07 25.5 3.39 50.09 11.19 74.25 19.8.91.32 1.23-1 .53-1.45-37.39-23.59-84.57-34.94-129.77-35.8a508 508 0 0 1 62.3-12.22c20 5.49 42.67 5.33 62.52 9.79a359.58 359.58 0 0 1 73.88 25.78c50.15 23.83 91.31 59.17 125.69 102.23a1 1 0 0 0 1.67-1.08c-24.81-50.85-68.55-92.49-117.41-120a285.22 285.22 0 0 0-39-18.29 392.75 392.75 0 0 1 95 21.73c5.92 3.34 11.78 6.73 17.54 10.44a396.44 396.44 0 0 1 54.29 42.89c34.27 32 60.1 69.73 81.14 111.43.32.59 1.24.1 1-.49-14.58-44.06-41.05-84.47-72.64-118.32-2.58-2.79-5.22-5.43-7.85-8.07 2.63 1.67 5.49 3.5 8.77 5.76a371 371 0 0 1 71.24 67.63c34 42 56.44 87.87 74 138.71.54 1.67 3.33 1.24 3.12-.59-7.26-59.61-37.29-118.48-76-163.83a352.24 352.24 0 0 0-31.75-32.72 333.55 333.55 0 0 1 46.06 17.17c63.33 29.05 118.1 78.87 143.55 144.79 12.43 32.28 19.53 66.71 18.67 101.36-.91 36.21-12 69.36-28.68 101.21a.79.79 0 0 0 1.29.86c27.23-30.5 40.63-72.1 44.29-112.23a234.5 234.5 0 0 0 .27-37.83c9.57 23.36 18.39 45.6 21.5 70.91a233.61 233.61 0 0 1-2.78 72.32A152.33 152.33 0 0 1 446 83.61a135.91 135.91 0 0 1-25.61 31.2 133 133 0 0 1-28.78 19.48c3.66-3.71 7.15-7.48 10.27-11.24 20.13-24.16 36.86-56.18 34.22-88.46a1 1 0 0 0-1.93-.16C424 64 413.17 92.75 388 113c-10 8-20.72 13.46-32.18 18.4 11-12.64 23.36-23.83 34.55-36.26a1.9 1.9 0 0 0-1.94-3.07c-18.24 4.74-35.62 15.5-50.58 27 2.32-4 4.63-8.12 6.78-12.21 15.6-29.86 31.9-59.57 46.86-89.7a.34.34 0 0 0-.54-.38c-11.52 13.94-21.42 29.11-33.09 42.88-10.55 12.49-20.93 25-30.94 37.88-5.43 6.94-10.55 14.1-15.5 21.36 1.3-7.1 2.75-14.09 4.47-21 1.18-4.73 2.58-9.3 4-13.88 5.92-12.16 13.13-23.62 20.39-35C355 26 372.82.58 371.79-27.88a155.58 155.58 0 0 0 .7-22.54c-.75-18.62-2.85-39.6-9-57.74a173.52 173.52 0 0 0-15-39.87c-.16-.32-.65-.05-.54.27 3.82 16.31 8 32.66 10.44 49.24.05.37.05.7.11 1.07.27 12.54 1.4 25.18.7 37.72-1 18.13-4.42 37.23-12.49 53.7a101.6 101.6 0 0 1-23.56 31.63 105.55 105.55 0 0 0 4.85-31c.16-11.24-2.1-21.84-5.81-32.39-2.75-7.91-5.65-18-12.76-23-2.9-4.85-6-9.58-9.14-14.21-.43-.54-1.4-.16-1.13.54a213.09 213.09 0 0 0 10.49 24.64c1.29 5.11 3 10.23 3.28 15.5A106.29 106.29 0 0 1 310.35-7a88.88 88.88 0 0 1-8 21.84 185.43 185.43 0 0 0-8.93-22.76 150.88 150.88 0 0 0-9.79-27.28 173.65 173.65 0 0 0-14.23-24.26 132.21 132.21 0 0 1-8-34.22c.27-4.25.65-8.5 1.08-12.75.75-3.18 1.29-6.35 1.83-9.53a59.68 59.68 0 0 0 1.94-16.57c1.45-18.19-.86-35.78-10.71-51.33-.43-.65-1.67-.38-1.51.48a140.51 140.51 0 0 1-.1 50.42A81.69 81.69 0 0 1 234.48-105c-.21-.26-.48-.53-.7-.86a12.29 12.29 0 0 0 2.21-7.64c-4.9-50.25-27-106.53-67.74-138.71a1 1 0 0 0-1.56 1.35c12.53 21.63 25.34 42.34 32.93 66.39a241.39 241.39 0 0 1 8.77 39.5c-1.94-1.4-3.82-2.8-5.81-4.14-1.83-4-3.77-7.86-5.55-11.52-8.93-18.62-19.42-39.71-32.76-55.53a.68.68 0 0 0-1.19.6c3.39 16.51 9.37 33.35 15 49.71-1.88-1.4-3.77-2.8-5.59-4.3a407.4 407.4 0 0 1-34.6-32.13c-9.9-10.22-18.83-21.25-27.66-32.39-2.85-3.71-5.75-7.37-8.77-11a390.58 390.58 0 0 0-26.56-30.84.37.37 0 0 0-.54.48l1.45 2.58c-1.45-1.39-2.85-2.79-4.36-4.19C35.67-311.32-10.06-339.3-58-351c-.7-.16-1.08.86-.43 1.13 45.43 20.79 85.49 46.62 119.82 83.2a316.77 316.77 0 0 1 44.34 60.43c.59 1.07 1.23 2.15 1.83 3.28-1.24-.81-2.42-1.61-3.61-2.48a221.7 221.7 0 0 1-9.15-6.83c-3.22-4.09-6.67-8-9.84-11.62-13.18-15.28-28.09-31.11-44.18-43.37a.79.79 0 0 0-1.18 1c9 17.55 20 34.49 30 51.55-7.37-2.42-14.74-4.57-22.11-6.56-1.35-.76-2.74-1.46-4.09-2.26-12.11-7.27-22.65-16.2-33.31-25-.59-.65-1.12-1.29-1.66-1.94A183 183 0 0 0-23-279.15c-22.81-16.57-48.32-27.12-75.7-33a.12.12 0 0 0-.11.22c25.56 9.79 48.91 24.86 69 43.26a237.14 237.14 0 0 1 27.44 30c1.08 1.4 2.1 2.91 3.12 4.41-.86-.21-1.67-.43-2.47-.59-1.51-.37-3-.64-4.58-1-6.45-3.32-12.59-7.15-18.7-11.07a138.1 138.1 0 0 0-12.16-11.51c-10.81-9.37-23.4-19.27-37.61-22.44a1 1 0 0 0-.91 1.67c10.81 10.44 22.7 18.67 31.1 31.47a54.11 54.11 0 0 1 3.12 5.6c-12.38-1.67-24.8-2.74-37.29-3.34-5.43-8.71-19.26-14-27.38-18.51-14.53-8-29.81-14.9-45.85-19.26-30.67-8.39-68.65-15.87-100.24-9.14-.16.05-.1.26 0 .32 15.82 1.88 31.75 1.61 47.51 4.46a211.84 211.84 0 0 1 48.75 15.12c14.58 6.57 29.22 13.35 42.72 21.9a65.36 65.36 0 0 1 6.24 4.74c-.59 0-1.18 0-1.77.05-35 .92-73.88 5.54-106.16 19.64a.53.53 0 0 0 .22 1c17.11-1.18 34.06-2.63 51-3.76-4.57 2.79-9 5.81-13.13 8.93-18.24 13.77-40.25 37-43.1 60.85-.21 1.72 2 3.34 3.29 1.72 7.26-9.09 12.1-19.64 19.85-28.41a142.12 142.12 0 0 1 26.8-23.54c15.45-10.39 32.77-15.28 50-21 7.8.11 15.6.38 23.46.92 9 .64 18.08 1.56 27.06 2.69-15.65 2.26-31.47 6.78-44 14.9-1.23.76-.7 3.12.92 2.85 22.27-3.6 42.77-8.77 65.64-7.42a173.56 173.56 0 0 1 19.21 2.1c-30.29 4.79-60 15.22-85.34 32.66-53.85 37.13-88.77 113.43-52.35 174.71.81 1.4 2.8.27 2.42-1.13-16.89-64.67 14.26-127 71.3-159.69 28.35-16.3 60.63-24 93.19-25.13a275.9 275.9 0 0 1 33.41.92c-20.23 6.56-39.76 18-52.3 34.43-.7.92.05 2.69 1.35 2.15 24.69-10.38 47.51-19.69 74.41-22.54 11.46-1.24 22.65-.43 33.84.7 2.85 1.45 5.65 3 8.5 4.52-26.15 2.1-51.81 13-70.11 31.9-1 1 .38 2.26 1.46 1.78 25.34-12.21 53.26-17.59 81.35-14.31a129.9 129.9 0 0 1 25 5.65c.27.32.48.64.75 1a4.58 4.58 0 0 0 4.9 1.5c2.09 1.67 4.19 3.34 6.24 5.06a101.87 101.87 0 0 1 8.77 8.55c-26-6.13-52.62-6.29-78.5.76-.7.21-.44 1.18.21 1.24 26.63 1.83 53.27 7.37 77.7 18.24 6 2.69 11.89 5.91 17.81 9.25a160.77 160.77 0 0 0-50.18-5.9c-30.83 1.39-61.55 12.69-84 34.32C24.32-56.5 8.45-28.79 11.78-3.29c.11.75 1.24 1.13 1.56.32 10.76-23.83 21.26-44 42.4-60.42 21.79-17 48.32-24.8 75.81-24.43 29.33.43 57.74 10.55 82.16 26.42 11.2 7.26 21.15 16 31 24.86-1-.54-1.94-1-2.85-1.45-23.3-11.3-54.45-14.32-77.16 0a.64.64 0 0 0 .32 1.18c25.18-3.12 49.77-4.09 71.89 10.65a92.17 92.17 0 0 1 23.4 22.28C263.54.53 266 5.48 269 10a268.37 268.37 0 0 1 10.16 42.56c-.69-1.51-1.39-3.07-2.2-4.57-13.13-25.78-42.4-59.35-72.58-64.3-.44-.11-1 .43-.6.86C213-4.53 225.12 3.87 234.32 15.06a159.67 159.67 0 0 1 23.73 39.65c1.94 4.68 3.66 9.42 5.22 14.15-.75-1-1.51-2.1-2.32-3.12C232.49 28.08 181.11-.92 133 4.67a.52.52 0 0 0 0 1c46.92 7.37 88.72 27 112.67 70 .48.86.91 1.72 1.34 2.58A152.56 152.56 0 0 1 251 115c-.06 3.71-.27 7.42-.59 11.08-19.54-23.35-48.11-40.24-76.73-39.6a1.27 1.27 0 0 0-.54 2.37c19.32 9.2 37.66 18.62 51.33 35.62A115.64 115.64 0 0 1 243 158.83c-.27 1-.54 1.93-.81 3a103.88 103.88 0 0 0-11.46-8.94c-12.54-8.34-25.72-11.78-40.57-12.26a1.44 1.44 0 0 0-.59 2.69A106.14 106.14 0 0 1 220 168.67c4.9 6 8.66 13.78 13.45 20.29-6.35 3-12.75 6.24-19.1 9.63-6.13-.32-12.43.75-19.69 3.23-14.8 4.89-28.41 12.53-43 18-15.5 5.87-30.78 9.79-47.46 8.5a61.22 61.22 0 0 1-24.37-6.83c-5.87-3.07-10.33-7.86-16.79-9.58-.11 0-.16.11-.16.22 3.17 11.62 20.55 20.6 30.61 25.55a85 85 0 0 0 28.41 8.51c-17.11 4.57-33.52 3.71-52.51-1.73a1 1 0 0 0-.86 1.67c14 12.91 35.94 15.77 55.36 13.72-2.63 2.26-5.27 4.47-7.85 6.73-1.35 1.18-2.75 2.42-4.09 3.66-13.29-.43-26.8 1.93-40.19 1.5-15.39-.54-30.62-3.06-44.88-9.14C-.48 251-19 226.51-45.41 213.28c-10.6-5.38-23.14-8-36.11-8.18a83.45 83.45 0 0 1 10.66-2.1c15.55-2 30.34 2.15 44.93 7.26.59.16 1-.7.53-1.08-15.06-13.29-36.21-17.7-56.38-17 2.69-.65 5.32-1.24 8-1.83 31.91-6.51 61.18-6.62 92.33 3.12a.58.58 0 0 0 .54-1C-4.42 171-45.15 166.81-75.5 170.57l-4.57.65a205.49 205.49 0 0 1 36.48-7.86c18.13-2.15 36.58-2.37 54.61.43a156.63 156.63 0 0 1 28.46 7.05c8.07 2.85 15.55 7.32 23.78 9.58.43.11.87-.43.6-.81-10.82-13.13-31-20-46.92-24.75A196.4 196.4 0 0 0-42.4 147c-5.06.11-10.11.38-15.23.81 20.29-6.46 42.19-8.61 63.71-7a153.11 153.11 0 0 1 21.47 4.09A158.33 158.33 0 0 1 65.8 161c17.71 11.89 32.45 27.33 47.94 42.88.43.43 1.19-.11 1-.65C104.7 171 73.82 146.56 44.12 133a161.78 161.78 0 0 0-56.71-14.37 140.56 140.56 0 0 0-66.07 9c-41.65 16.41-75.12 51.17-91.26 92.76-19.21 49.39-9.9 102 6.41 150.81 17.21 51.66 43.74 103.31 42 159.11a126.74 126.74 0 0 1-17.6 61 67.55 67.55 0 0 1-9.74 12.1c-3.06-60.85-21.68-121.6-51.49-166.25-.21-.27-.7-.06-.59.27 7.16 24.48 15.66 48.47 20.72 73.55a480.41 480.41 0 0 1 8.82 75.92c.54 13.66 3.77 67.63-24.32 138.28-16.41 41.21-52.14 72.53-94.64 86.73-34.38 11.51-69.84 13.29-105.25 9.52 2.37-1.13 4.74-2.26 7.05-3.39 15-7.31 29.86-15.76 42.45-26.9 19.91-17.59 47-49.82 46.38-79.25a69.14 69.14 0 0 0 3.23-20.13 1 1 0 0 0-1.93-.43c-2.69 5.38-5.28 11.3-8.24 17a103.13 103.13 0 0 0-9.63 14.85c-6.08 7.1-13.29 12.91-20.71 18.62a145.57 145.57 0 0 1-58.6 27.12c-33.72 7.16-80.81 7.63-109-15.67 13.43 3.13 28.17 3.27 41.63 3.36 1.16 0 2.33-.06 3.49-.11 3.39.54 6.79 1.05 10.22 1.49 15 1.89 42.42-3.66 47.77-11.83a2.38 2.38 0 0 0 0-1.94c2.75-2.31-9.42-4.45-12.53-4.24-58.49-18.23-111.39-83.65-108.09-146.11 10.6 24.06 25.69 47.11 44.81 63 24.11 20.07 61.72 31.48 91.9 19.26a70.94 70.94 0 0 0 13.29-7.15c-13 21.41-32.12 31.31-53.53 42.51-.33.16-.11.59.16.59 25 1.23 50.63-16.79 64.56-36.37a100.12 100.12 0 0 0 12.11-23.14c-1.56 25.13-5.92 50-7.32 75.11a1 1 0 0 0 1.89.43c10.6-22.81 14.85-48.48 17.16-73.39 1.4-15.66 2.48-31.85 1.29-47.72.43-2.1.86-4.2 1.24-6.25.27-1.56.54-3.12.75-4.62a172.6 172.6 0 0 0 29.33 35.51c19.58 17.92 42.88 31.69 53.37 57.35 10.65 25.88 7.64 52.2-4.09 77.05-.54 1.13 1 2.32 1.83 1.3 31.1-37.29 20.45-92.44-12.7-124.08-12.64-12.16-25.39-23-36.64-35.46a157.47 157.47 0 0 1-9.15-15.92c-7-14.21-10.22-29.49-15.55-44.29-1.61-4.41-3.44-8.93-5.43-13.45 28.79 23.35 61.23 41.81 89.21 66.24a.43.43 0 0 0 .65-.54c-16.25-25-38.64-43.69-61.18-62.41-4.84-5-10.06-9.58-14.74-14.64-8.29-8.93-15.12-18.83-21.9-28.84-1.67-2.74-3.39-5.43-5.06-8.07q-3.63-6.21-7.1-12.43c-1-1.88-2-3.71-3-5.59a355 355 0 0 0 30.51 24.1c51.86 36.69 140 70.81 120.84 151a.21.21 0 0 0 .38.16c14.15-26 6-56.49-10-79.74-18.4-26.85-47.61-44.82-74.25-62.52-25.77-17.11-50.36-36.48-71.34-59.29-4.31-7.59-8.5-15.28-12.92-22.71 1.67 1 3.29 2.05 5 3 57.46 35.35 86.79 38.79 95.5 42.34a.52.52 0 0 0 .49-.91c-18.14-10-36.38-19.64-54.94-28.95-6.89-3.45-13.88-7.21-21-10.76A240.93 240.93 0 0 1-369.8 405a249.7 249.7 0 0 1-23.3-25.18 156.07 156.07 0 0 0 33.9 20.5c20.44 8.83 43.79 18.24 66.45 17.44 1.45-.06 2.15-2.37.64-3-21.52-8.72-42.88-14.69-62.09-28.41a294 294 0 0 1-48.64-43.91c-28.53-32.07-37.42-77.31-38.15-80a478.24 478.24 0 0 1-4.68-129.07 158.53 158.53 0 0 0 27.12 46.38c29.54 34.7 81.62 63.43 128.65 57.35a.9.9 0 0 0 .1-1.77c-22.32-4.79-43.58-8.83-63.75-20.34a154.91 154.91 0 0 1-49.13-44.5 157.35 157.35 0 0 1-20.18-40.19 254.76 254.76 0 0 1-4.08-41c-.49-23.89 3.17-46.76 7-70a521.09 521.09 0 0 1 30.29-69.46c2.42-4.63 5-9.26 7.59-13.78a11.44 11.44 0 0 0 4.41-7.48c14.85-24.91 31.58-48.15 48.48-72 .27-.38-.11-1.08-.59-.7-20.93 17.22-39.55 37.82-55.8 60.53a12.81 12.81 0 0 0-7.26 0c-26.74 7.31-52.68 21.79-70.43 43.47-14.85 18.13-32.34 43.85-33.9 68 0 .27.27.27.38.11 9.41-14.37 16-29.11 28-42 10.77-11.51 24.49-20.93 38-29a163.61 163.61 0 0 1 23.19-11.62c1.29-.49 2.64-1 4-1.4-4.36 7.26-8.5 14.69-12.43 22.16-17.81 8.83-35.73 26.15-42.67 44.77-3.44 5.92-6.56 11.89-9.42 17.33-11.41 21.53-20.9 46.07-23.36 70.33-.11.81 1 1.4 1.46.54 11-21.63 21-42.93 35.18-62.79 4.47-6.29 10-12.21 15.45-18.18-2.69 7-5.28 14.15-7.59 21.19-.27.87-.54 1.78-.86 2.69-5.17 8.67-7.53 16.58-8 27.88a470.09 470.09 0 0 0-13.41 137.82q-5.62-12-10.81-24.17c-7.17-18.47-14.88-37.42-18.12-50a419.57 419.57 0 0 1-11.36-69.9A368.84 368.84 0 0 1-509.7 6zm638 274.67c74-64.78 167.55-107.13 244.17-110.52 4.85-.21 9.58-.26 14.26-.16l-.43 105.41c-115.84 8.5-219.26 57.46-292.38 138.82C60 452 33.2 495.43 13.83 543.59q6.17-29.05 15.06-57.47a571 571 0 0 1 26-67.47c.87-2 1.89-3.87 2.8-5.81 4-6.83 8.13-13.56 12.32-20.28C84.15 370 99.49 348.49 115 327c5.81-7.26 11.52-14.58 16.9-22.11a.16.16 0 0 0-.22-.22C109 325.78 88.46 350.91 70.43 376c-5.59 7.84-11.19 16-16.43 24.47-3.87 6-7.48 12.26-10.82 18.61-21.3 32.77-39.54 67.42-51.11 105-.48 1.45-.86 3-1.29 4.46-10.12 25.29-13.94 53.32-17 80.17-3.29 28.57-7.48 59-4.63 87.76a.55.55 0 0 0 .11.27 413.75 413.75 0 0 0 5.38 62.57c1.18 7.21 2.26 14.8 3.6 22.38.22 2.53.43 5.12.7 7.65C-37 728.62-45.36 656.9-34.33 578.51c20.56-146.57 99.81-242.88 162.65-297.87zM2.74 1555.5c7.64 10.49 20.4 14.53 34.44 10.65 6.35-1.72 15.49-5.86 28.09-11.56 1.61-.76 3.28-1.51 5-2.32-4.58 10.12-6.41 21.74-.17 30.19 9.53 13.07 31.37 13.88 45.63 11 17.16-3.45 33.63-14.15 41.91-29.86s3.18-33.47-13.18-41c37.83-12.43 83.94-23.3 136.61-25.66l14.37-.49c3.77.16 7.53 0 11.3-.16a617.21 617.21 0 0 1 93.41 6 27.79 27.79 0 0 0-2.75 3.34c-5.27 7.8-7.1 21.9.11 28.25 9 16.46 34.6 26.52 51.92 27.54 12.05.76 35 .7 41.48-12.32a16.67 16.67 0 0 0 1.62-5.81c0-.11.11-.21.11-.32a30.29 30.29 0 0 0 .86-19c52.35 16.94 104.38 42 159.15 76.13 6.67 4.14 13.08 8.29 19.37 12.37a38.06 38.06 0 0 0-7.75 1.57 23.5 23.5 0 0 0-8.07 2.79 5.26 5.26 0 0 0-2.26 2.8A23.38 23.38 0 0 0 647 1630c-5.22 15.66 5.71 32.23 17.44 41.75s28.24 16.42 43.42 16c5.43-.16 9.41-1.94 12.32-4.74a1.6 1.6 0 0 0 2.2-.7c3.82-6.78 60.16 15.07 78.4 31.53 27.44 24.7 42.5 38.31 56.6 37.67a17.72 17.72 0 0 0 6-1.24c3.33-1.24 7.85-4.09 10.65-10.65 7.1-17-2.1-55.42-16.89-97.93a202 202 0 0 0-9.31-28.78c28.57 40 56.6 97.6 69.57 148.71-13.61-10.27-30.89-13.61-41.22 3.61-8 13.34-6.4 34.86-3.92 49.39 2.15 12.43 7.26 23.89 16 32.5a54.6 54.6 0 0 0 11.89 2.58l1.61.16a1.83 1.83 0 0 1 1.56 1.67.31.31 0 0 1 .22.11 11 11 0 0 0 1-1.18c5.92.91 11.14-1.35 15.61-5.55-6.24 18.67-13.83 21.58-19.86 21.85-22.59 1-64.67-32.39-122.94-78.61-34.49-27.33-77.37-61.34-127.46-97.07-112.51-80.27-228.57-118.37-344.9-113.26a446.86 446.86 0 0 0-86.35 12.38c-51.33 12.64-96.37 32.77-136.13 50.58-39.06 17.43-72.8 32.5-98.52 33.68-18.72.81-31.69-5.65-42.18-20.93-3.82-5.65-5.6-20.29 1-44.44 8.39-30.89 28.19-67.42 53-88.68-1.73 14.27.64 26.43 6.93 35.09zm135.49 101.21c44.76-29 104.43-43.74 156.94-49.77 54.24-6.19 105.79 2.42 153.4 29.48.27.11.11.6-.16.49-95.93-38.8-217.48-20.72-308.46 22.7a1.69 1.69 0 0 1-1.72-2.9zm759.08 176.53l-1.67-.16c-5.6-8.5-8-18.67-8.77-28.78-.7-8.61-3.17-32.29 9.58-34.49 9.25-1.56 18.51 8.12 22.33 15.49 5.38 10.28 3.87 22.6-.16 33-1.46 3.71-4.9 13-8.4 15.76-6-6.72-10.06-13.56-11.57-23.19-1.29-8.55.11-17.32-1.45-25.77a.34.34 0 0 0-.64-.06c-7.7 15.17-7 33.52.75 48.2zm-84.1-226.52a50.87 50.87 0 0 0 .27-7.15c11.35 36.53 14.64 68.92-8 65.91-26.74-3.55-68.71-47.08-90-61.45-59.18-39.87-145.92-85.92-187-99.91-40.89-13.88-80.22-26.15-123.37-28.9q-32.69-2-65.48-1.13c-13 .38-28.57.27-42.45 3.34 5.32-15.82 10.27-31.8 14.95-47.83 5.49-11.41 8.56-24.81 12.27-36.54 3.07-9.57 6.3-19.26 9.09-29 .54-1.5 1-3 1.56-4.46 1.46-3 2.91-6 4.31-8.94.86-2.25 1.61-4.51 2.47-6.77 7.21-20.18 14.53-40.36 22.06-60.27.27-.75 1.56-.43 1.51.33-.11 1.77-.27 3.6-.43 5.38.38.1.7.37.59.8-.37 1.4-.75 2.75-1.07 4.15-2.8 23.46-10.17 47.13-16.15 69.89a712.94 712.94 0 0 1 285.39 64 717.21 717.21 0 0 0-210.33-94c64 5.7 101.1 13.29 158.14 31.91 56 18.34 100.29 47.4 136.55 90.34-4.46-12.43-9.41-24.65-14.69-36.75-3.87-8.83-7.69-17.76-11.56-26.69-13.13-23.46-27.12-46.43-39.93-70 .7.92 1.46 1.83 2.16 2.8 19.2 29.32 40.83 57.3 57.3 88.62 11.78 22.38 24 45 33.57 68.38 9.26 22.55 14.58 46.38 23.35 69 .33.86 1.83.86 1.73-.22a266.82 266.82 0 0 0-4.63-28.19c-2.75-13-6.57-29.92-7.1-42.89 11.35 14.42 50.47 117.89 15.65 119.51-14 .64-33.25-17.92-44.39-25-16.08-10.28-32.17-20.66-48.26-30.83-33.3-21-62.2-26.31-62.2-26.31s21 12 30.19 17.43c10.7 6.24 21.09 12.91 31.26 20a475.49 475.49 0 0 1 58.7 48.27c13.4 12.91 33.95 39.33 54 40.46 21.1 1.24 22.93-22.22 19.97-37.29zm-425.06-296.25c.59 3 4 5.6 6.24 7.64.65.59.11 1.78-.75 1.51-4.68-1.29-9-4.41-11-8.88-1.94-4.3-3.5-11.14-2.26-15.87 2-8.18 10.22-12.64 18.18-12.22 12.92.7 30.4 12.86 27 27.66a14.27 14.27 0 0 1-6.4 8.56c-3.07 1.88-8.83 3.82-12.32 2.42a.83.83 0 0 1-.22-1.24c2.1-2.74 5.92-3.82 8-6.83a6.29 6.29 0 0 0 1.13-2.86 7 7 0 0 0-.27-2.2 16.91 16.91 0 0 0-3.07-4.79 35.36 35.36 0 0 0-3.76-3.12 9.65 9.65 0 0 0-.92-.65 18.72 18.72 0 0 0-1.88-1.13c-1.29-.7-2.85-1.34-2.91-1.39a18.85 18.85 0 0 0-2.36-.65c-.22 0-1.35-.16-1.62-.22a13.56 13.56 0 0 1-2.47.06 11 11 0 0 0-1.4.48c-.16.11-.43.22-.65.38-1.94 1.34-1.29.59-2.74 2.2-.92 1.08-1.94 2.1-2.75 3.18-1.88 2.49-1.39 5-.8 7.96zm-77.43 66.29a534.51 534.51 0 0 0-78.23-4.84 698.63 698.63 0 0 1 82.86-7.48c-1.56 4.09-3.12 8.18-4.63 12.32zm152.54 156.3c-9.58.76-20.66.43-29.43-4s-12.59-11.35-15.49-19.64a34.41 34.41 0 0 1 6.88-1.39 47 47 0 0 1 7.32-.06c6.19 1.24 12.32 2.64 18.4 4.09a.2.2 0 0 1 .16.05c11.62 4.42 20.13 11.41 27.34 20.13-.49 5.11-4.95 7.64-10.39 11.14a5.81 5.81 0 0 0-2 2.42 81.38 81.38 0 0 1-10.71.27c-13.56-.22-35.83-4.15-42.5-18 14.9 10 41.21 14.48 51 6.19.5-.39.01-1.2-.58-1.2zm233.41 128.49c-6.35-5.43-14.31-8.07-19.16-15.44-1.93-2.91-4.84-8.93-3.44-12.59a6.43 6.43 0 0 1 2-2.53 29.22 29.22 0 0 1 4.25.91 60.27 60.27 0 0 1 24.68 13.72 22.28 22.28 0 0 1 4.73 5.65c.11.22.27.44.38.65a16.38 16.38 0 0 1 1.45 7.64c0 3.82-.48 10.44-4.52 12.43-5.6 2.69-21.58-5.38-25.83-7.8-7.8-4.52 2.86-.38 15-1.4a.73.73 0 0 0 .46-1.24zm-561-113.26a.79.79 0 0 0-1.45-.54c-8.34 12.7-20.72 24.48-37.34 23-2.53-.22-6.08-2.42-9.63-4.14 1.18-6 5.81-14.1 9.58-18.62 6.83-8.13 18.72-12.32 29.32-12.59a46.91 46.91 0 0 1 16.68 6.45c3.76 5.87 1.72 14.8-4.84 22.12-7.16 8-17.49 12.91-28 14.42a50.45 50.45 0 0 1-6.57.59 49.59 49.59 0 0 0 9.26-3.23c10.53-5.02 20.65-15.75 22.96-27.46zm-69.3-14.69a336.2 336.2 0 0 1 150.82-88.88 272.13 272.13 0 0 0-80 7.58c50.31-28.35 106.75-45.46 164.27-50.79-.43 1.24-.91 2.48-1.4 3.71-4.57 12.11-9.15 24.27-13.77 36.38L279 1461c-1.24 3.22-2.42 6.45-3.66 9.68-.27.38-.48.75-.7 1.13a25 25 0 0 1-1.94 7c-92.24 5.51-163.91 35.69-206.36 54.79zm3.12-122.46c37.5-70.11 73.82-138.81 91-175.67 21.79-46.76 16.57-85.18-4.9-127.2q5.4 4.68 10.82 9.2c.32.54.59 1.13.86 1.67a61.81 61.81 0 0 1 5.91 9.52c.87 1.24 1.67 2.48 2.48 3.82h.11c.16.38.27.76.43 1.08 5.27 9.52 8.55 20.55 11.84 30.24 3.12 9.31 6.34 19 11.78 27.28 19.64 17.75 46.49 29.48 69.62 38.68 25.34 10 51.6 17.28 78.18 23.19 25.56 5.71 52.35 7.75 77.53 14.8 1.19.32 1.08 2.26-.16 2.15-33.95-3.17-57.25-2.74-84.42-7.21-4.09-.64-8.18-1.4-12.26-2.2-25.4-2.64-50.69-6-75.17-12.27-3.55-.86-7.1-1.83-10.6-2.85-6.83-1.08-13.67-2.1-20.55-3-13.67-1.67-25.83-1.45-39 3-1.24.43-2.47.92-3.71 1.4-7.75 10.33-15.71 20.5-23.35 30.94-17.22 23.4-31.69 48.8-47.24 73.28-10 15.66-20.13 31.26-30.19 46.87-1.45 2.41-5.06 9.95-9.04 13.28zm-73.77-654c-2.61-140.59 44.1-260.63 125.56-343.44-20.66 42.08-48.28 80.55-66.83 124.24-19.1 45-36.64 94.21-41.7 143-15.23 147 54.61 301.25 163.84 400.74 52.57 47.83 114.12 83.34 180.14 109.28 27.33 7.8 55.26 13.39 83.23 18 39.23 6.51 79.1 10.82 118.86 11.3 41.43.54 82.38-3.6 123.7-5.54a1.15 1.15 0 0 1 .7.27c2.42-.11 4.84-.27 7.26-.32.75 0 1 1.18.27 1.34-35.46 7.43-71.35 14.2-107.39 18.29-33.26 1.35-65.38 1.13-95.45-.59C259.45 1220.4.43 1013.79-4.31 757.14zm842.22 470c-184.66-101.69-394-216.94-520.84-390-30.29-41.32-42.13-79-31.63-100.88 6.72-14.1 23.13-21.25 48.53-21.15 122.19.65 236.47-1.34 339.67-5.91 195-8.61 338.6-26 417-50.26a82.92 82.92 0 0 1-2.31 19.43c-1 1.93-2 3.87-3.12 5.75a5.26 5.26 0 0 0-2.69 2.69 38.57 38.57 0 0 1-1.88 3.34c-.06.11-.16.16-.22.27-.48.48-.86 1-1.29 1.45a68.63 68.63 0 0 1-18.72 13 54 54 0 0 1-7.75 3c-5.54 1.18-11.09 2.48-16.52 3.44-4.14.65-8.34 1.19-12.48 1.94-13 2-26 3.82-39.12 5.65-16.09 2.31-32.28 4.41-48.53 5.76-15.23 1.29-31.1.7-46.11 3.71v.11c15.87 2.47 32.87.48 48.85-.06 16.25-.53 32.5-1 48.7-2 15.22-.92 30.4-2.64 45.52-4.57 14.25 4.19 22.22 16.84 22.81 32.28a36.8 36.8 0 0 1-.22 5.49c-51.49 177-133.7 285.49-189.44 358.93-9.8 12.91-18.46 24.32-26.15 35a2.77 2.77 0 0 1-.65-.22c-25.93-11.3-47.94-21.41-73.23-34-22.33-11.14-68.17-29.32-92.92-46.54 2.69 1.07 45.95 18.13 57.3 22.76 13 5.27 26.15 9.63 38.9 15.44 14.26 6.51 28.63 12.64 43.05 18.72 7.69 2.91 15.44 5.76 22.87 9.2a11.07 11.07 0 0 0 2.79-1.07c1.29-1.56 58.81-81 69.68-96.58-7.21-1.62-14.58-2.85-21.95-4-4.68 6.35-9.47 12.59-14.48 18.72-12 14.74-25.88 32.28-42.23 42.4a.05.05 0 0 1-.06 0c.33-.71.65-1.35 1-2 98.66-116.38 169.2-268 182.93-354.52 0 0-72.26 5.33-82.64 5.43-27.71 87.87-61.29 157.65-100 219-10.22-1.72-20.49-3.5-30.72-5.33-4.41 4.85-9.09 9.58-13.77 14.15 11.62 2.21 23.24 4.31 34.92 6.08-2.59 3.93-5.22 7.91-7.86 11.79-12.05-2.37-24.05-4.84-36-7.59-2.91 3.55-5.76 7.1-8.77 10.6-.27.32-.6.7-.86 1q18.39 4.68 37 8.45c-3.55 5.06-7.1 10.06-10.71 15-8.23-1.83-16.41-3.71-24.59-5.7-4.52-1.08-9.09-2.21-13.61-3.34-11.94 14.42-24.86 29.27-39.87 39 82.84-105.4 140.2-226.6 152.2-302.08 0 0-69.3 5.91-78.34 8C766 830.58 739.44 890 709.1 942.55l-8.34-1.77c-8.39-1.72-16.84-4.15-25.34-6.68-2.32 3.18-4.68 6.35-7.11 9.47 11 3.39 22 6.46 32.13 9.85l1.88.65a695.42 695.42 0 0 1-6.24 10.22q-17.83-5.25-35.46-11.14c-1.61 2-3.28 3.93-5 5.92 11.57 4.9 23.19 9.52 35 13.88-3.76 5.92-7.58 11.73-11.46 17.49-2.58-.81-5.22-1.62-7.85-2.42-8.18-3.71-16.36-7.48-24.48-11.3-1.51-.75-3-1.51-4.58-2.21-5.65 6.35-11.51 12.54-17.65 18.4 4.2 2.43 8.4 4.79 12.7 7.05 8.61 4.63 17.38 8.93 26.21 13.08a1 1 0 0 1-.27.37c-4.47-1.56-8.94-3.12-13.35-4.84-9.79-3.76-19.47-7.85-29.11-12.05-2.9 2.69-8.5 4.14-13.61 4.84a4.15 4.15 0 0 0 .75-.7c65-78.5 111.6-176.1 125.69-241.21 0 0-49.23.92-55.74 2.48-18.4 67-43.15 117.67-76.35 167.44-13-5.86-26.09-11.68-39.49-16.36-.54-.16-.7.6-.32.86a241.71 241.71 0 0 0 36.48 20.45c-3.13 4.57-6.25 9.09-9.47 13.61q-19.79-10.24-39.23-21c-32.39-18-63.17-39.39-94.69-59-.54-.32-1.14.54-.65 1 29.22 25.83 60.31 48.59 91.52 71.89q15.66 11.7 31.75 22.65c-2.26 3.07-4.58 6.19-6.94 9.25a718.77 718.77 0 0 1-63-37.12c-16-10.55-31.21-22.39-46.86-33.42-23-18.56-45.95-37.28-69.25-55.52-.16-.11-.43.11-.27.27 33.57 40.89 72.8 77.21 112.61 112 31.26 27.28 63.82 52.67 96.75 77.86-39.55-20.29-76-46.06-110.63-73.88-33.2-26.69-70.59-54.18-96-88.62-7.32-9.79-17.33-22.11-20.77-34-2.69-9.2-.38-28.52 5-36.59 8.72-13.18 9.42-35.51-4.36-45.63a.17.17 0 0 0-.27.17c.33.86.6 1.72.86 2.52-.1-.1-.16-.26-.26-.37s-.49-.11-.49.16c1.88 14.15.11 29.75-12.91 38.58a31.83 31.83 0 0 1-22.82 4.73 52.07 52.07 0 0 1-8.07-3.49 53.33 53.33 0 0 1-12.59-10 30.39 30.39 0 0 1-4.68-18.94c1.08-9.79 6.84-16.73 14.48-21.25 7-2.31 14.63-2.85 22.16-4.2 2.21-.43 1.73-3.66-.16-4.14-28.51-6.78-56.06 12.64-48.42 41.64a48.43 48.43 0 0 0 1.88 5.55c6.19 15.33 17.92 30 27.82 43.2 11 14.74 22.87 28.9 35.08 42.72a1049.57 1049.57 0 0 0 82.43 82.86c28.3 25.56 55.42 46.17 86 68.93 3.71 2.8 7.48 5.54 11.3 8.28 15.12 12 31.31 22.76 47.13 33.31 24.11 16 49 31.26 74 45.79 48.48 28.14 98.78 49 151.35 68 .49.21.81-.65.32-.86-50.79-20.77-100-48.11-146.08-77.75-13.23-8.5-26.09-17.49-38.79-26.64 21 11.14 46.11 24.16 67.36 34.82 81.25 40.94 103.36 42.29 130.64 62.57 3.72 3.23 7.59 10.76 9.8 18.13 2 7 2 13.89 1.93 20.72a103.39 103.39 0 0 1-2.26 15.33zM670.2 1040.26c10.49 8.61 22.22 16 33.57 23.25-15.44-6.41-30.88-13.08-45.2-21.79 14.75-17.76 28-36.65 40.57-56a941.19 941.19 0 0 0 66.45-121.27c14.1-30.83 25.83-62.31 36.65-94.38a469.87 469.87 0 0 1-13 48.43c-12.69 39-29.32 76.51-48.47 112.72q-15.66 29.7-33.79 58c-11.28 17.58-23.22 35.06-36.78 51.04zm-88.35-51a118 118 0 0 0 19.31 18.74 120.18 120.18 0 0 1-26.84-15.44c-.65-.54-2.21-1.35-2.59-2s.06-.91.76-1.88c2.47-3.39 5-6.78 7.53-10.22 23.14-31.53 44.71-64.25 63.17-98.74 9.14-17.11 17.59-34.59 25.07-52.51 7.59-18.19 13.83-36.69 19.58-55.47-.16.7-.32 1.29-.43 1.83a431.78 431.78 0 0 1-14 50.63c-20.97 59.97-53.9 114.26-91.56 165.11zm193.21 97.49c13 8.24 26.58 15.61 40.3 22.66a537.44 537.44 0 0 1-52.3-20c16.42-22.17 32.61-44.5 48.11-67.36 31-46 59.5-93.79 83.5-143.77a767.27 767.27 0 0 0 43.48-112.72c-.22 1-.38 1.88-.54 2.63a477.35 477.35 0 0 1-14.8 55.26c-15.76 46.44-36.53 90.83-60.8 133.44a1056.8 1056.8 0 0 1-86.95 129.91zM67.79 581.2c10.77-58.22 39.44-112.4 80.34-155q27.6-21.71 55.31-43.36c6.13-3.5 12.26-6.89 18.61-10.06 36.21-18.08 76.73-30.14 117.25-32.34a431.56 431.56 0 0 1 54.66-.11 387.49 387.49 0 0 0-40.08 5.49c-47.19 8.93-97.34 29.32-133.33 62-.33.21 0 .7.37.59 22.49-8.45 43.91-17.86 67.1-24.59 15.93-4.57 32-8.88 48.26-12.38 19.91-2 39.87-3.28 60.37-2.15 13.18.7 26.26 1.83 39.28 3.71-3.87.11-7.75.27-11.68.54-38.09 2.8-72 14.53-106.64 29.7a.46.46 0 0 0 .32.86c33.52-8.77 70.38-10.22 104.87-9.57A413.09 413.09 0 0 1 471 398a130.62 130.62 0 0 1-1.46 18.89c-2.2 15-5.86 29.75-9.79 44.33a599.15 599.15 0 0 1-29.16 83.3C418.71 571.67 405.74 597.93 390 623c-15.28 24.54-36.42 46.65-48.64 72.75a.36.36 0 0 0 .49.48 100.77 100.77 0 0 0 10-7.15c-1.89 2.58-3.66 5-5.38 7.42h-12.43c-2.37 0-4.63 0-6.84.16-36.75 1.61-52.13 18-58.59 31.53-6.62 13.77-7.16 31-2.1 50.52 3.44 26.42 22.49 53.86 34.6 74.2 5.22 8.82 10.38 17.7 14.85 26.85 2.85 5.81 5.32 67 5.75 77.26.87 20.18.92 40.25 1.08 60.37.11 19.69.86 39.33 1.78 59 .8 17.22 4.19 34.06 5.38 51.17 0 0-.16.11-.16 0-4-7.69-6.25-16.24-7.81-25-7.21-19.37-16.46-77.86-22.59-116.87-3.23-20.44-8.78-72.53-8.56-77.64-11.51-8.71-22.6-17.86-33.9-26.85-4.52-4.68-8.77-9.57-12.91-14.52-13-18.51-24.21-38.2-35.46-58.49-.16-.27-.54-.05-.48.22 5 18.72 13 37.28 22.81 55 8.23 16.79 18.46 32.61 29 48 3.77 5.49 7.59 11 11.52 16.47A398.35 398.35 0 0 1 225 875.46a451.68 451.68 0 0 1-49.34-85.77c-13-29.54-20-61.34-26.79-92.76-.16-.81-1.29-.48-1.29.27-.11 6.35 0 12.75.43 19.16-.7 37.23 7 76 17.16 111.32 1.67 5.76 3.55 11.46 5.54 17.06-51.8-71.57-83.22-158.74-78.43-247.83a.45.45 0 0 0-.87-.11 270.61 270.61 0 0 0-4.89 102.61c1.56 40.84 11.08 82.53 23.24 121.33-.11.59-.16 1.24-.21 1.83-1.78-3.29-3.55-6.51-5.22-9.85C68 741.54 53.27 660.18 67.79 581.2zm.76 273.6c9.84 24.75 18.13 50.09 32.93 72.58 13.12 19.91 24.53 40.89 38.84 60 29.33 39.38 65.86 76.29 103.15 108.14.21.22-.06.65-.32.49-22.23-13.72-44.82-25.4-64.46-42.94a383.19 383.19 0 0 1-50.42-55.31c-14-18.51-28.89-39.12-35.94-61.39-8.5-26.8-19.85-53.54-25.77-81a1 1 0 0 1 1.99-.57zm161.36-519.28c51.06-24.86 108.85-39.65 171.75-42.45 14-.65 28.51-.65 42.88-.05A641 641 0 0 1 561.4 308.3c-25.23 72.58-61.71 145.38-99 210.16 1.13-3.34 2.31-6.67 3.6-10a2.3 2.3 0 0 1-.27-1.88c5-15.12 13.13-29.06 20.07-43.31.16-.43.38-.87.54-1.24 5.54-12.65 11.08-25.24 16.41-38 14.58-35.24 27.07-71.13 41-106.59-7.42-3.12-35-9.41-41-10.06-34.81-3.93-69.25-6.13-104.27-4.52a608.22 608.22 0 0 0-112.4 15.44c-19.08 4.52-37.61 10.93-56.17 17.22zM605 220.22C778.72 253.47 890.58 418 904.9 526.37l.26 2.2 1.3 1.83c.21.38 24.53 35.73 48.8 70.76 21.68 31.26 34.22 49.28 41.91 59.78-76.51 13-180 22.76-306.31 28.78-2.21-.05-4.41-.11-6.57-.21-14.15-.65-28.3-1.35-42.45-1.73-26.09-.69-52.19-1.29-78.28-2.2 7.1-1.24 14.2-2.48 21.3-3.66 15.34-2.64 31.48-3.5 46.33-8.18.64-.16.38-1-.16-1-17.27-1.13-34.87 2.21-52.14 3.17-15.6.81-31.26 1.78-46.86 3.29-9.9.91-19.86 2-29.76 3.06 15.71-3.6 31.37-7 47.13-10.38 16.2-3.39 35-5 50.15-12 .43-.21.59-1 0-1.07-16-1.51-33.09 3-48.91 5.06-17.11 2.31-34.17 4.51-51.28 6.34-13.45 1.51-26.85 3.29-40.19 5.22 2-.75 4-1.45 5.86-2.1 22.6-7.69 45-15.92 67.64-23.56A.94.94 0 0 0 532 648c-23.46 5-47.14 9.36-70.6 14.37-3.55.75-7.32 1.4-11.3 2.1a12.84 12.84 0 0 1-3.82-1.46c-5.32-3-7.21-7.64-8.5-13a1103.84 1103.84 0 0 0 105.44-199.29.66.66 0 0 0-1.19-.59c-48.85 84.26-96 168.78-156 245.94l-.32.48h-16.3C439 599.44 570 398.74 605 220.22zm-254.93 882.3c.21 3.22 1.88 6 3.06 9 .43 1-.8 1.83-1.67 1.4-3.92-1.83-5.64-6.73-7.37-10.49-2.15-4.9-4-11.46-3.12-16.84 1.94-11.84 18.46-16.14 28.36-13.4 10.49 2.9 20.71 13.24 19.42 24.8-1 8.72-8.18 18.24-16.19 21.58a.45.45 0 0 1-.49-.7c4.52-4.63 9.1-10.6 8.07-17.38a17.21 17.21 0 0 0-13.07-14.26 12.64 12.64 0 0 0-13.83 5.44 18.93 18.93 0 0 0-3.18 10.85zm.1-101.21a.18.18 0 0 1-.32.16c-1.51-2.37-3.66-4.63-5-7.05-1.08-1.94-1.08-4.25-1.67-6.29-1.35-4.31-2.69-7.81-.49-12.22 3.13-6.29 9.74-9.84 16.58-10.17 12.59-.54 26.63 9.8 26.79 23 .11 8.88-5.7 14.63-12.59 19.15a.42.42 0 0 1-.54-.64c4-4.74 8.07-12.38 5.06-18.62-2-4.3-7.1-7.91-11.19-9-4.52-1.18-8.45-1.13-11.14 1.24-.48.38-.59.7-1.4 1.94a46.48 46.48 0 0 1-3.39 4.2c-2.7 3.21-1.67 9.89-.71 14.3z"/><path class="c" d="M645 290.23c1.87.73 28.06 13.27 38.91 19.58 23.33 13.59 44.19 30.39 65.43 46.93.63.48 1.11-.94 1.11-.94s-36.4-41.29-58.66-57.2l-.52-.36c9.08 5.08 27.8 16.65 36.57 22.31 24.91 16.06 47.33 29.31 87 70.5.65.67 1.75-.24 1.26-1.07-20.78-34.67-54.94-63.62-87.34-87.14a460.08 460.08 0 0 0-50.17-31.66c-9.67-5.27-19.62-10-29.68-14.49A210.55 210.55 0 0 0 623 248.6s-3 1.06-5.65 8.65C614.8 264.4 584.53 359.41 570 399.5c-.11.3.33.52.53.28A145.85 145.85 0 0 0 586 377.34c8.89-13.12 16.42-27.43 24.65-40.89M470.09 657.6c-9.82 2.76-19.73-6.52-18.88-16.36.74-8.47 10.71-15.23 18.86-11.66 2.29 1 4.25 4.12 1.18 5.45-1.41.62-3.07.09-4.5.43a9.77 9.77 0 0 0-5.09 3.32c-3.08 4-.08 10.62 5.24 10.35 5.8-.29 6.36-6.7 9.71-9.87a.1.1 0 0 1 .1 0c3.83 1.4 3.75 5.91 2.74 9.36a14.13 14.13 0 0 1-9.36 8.98z"/><path class="c" d="M621.86 391.18a.05.05 0 0 1 0-.1c6.24 1.31 9.65 7.44 8.14 13.84-1.85 7.84-10.59 12.33-18.11 12.05s-16.46-5-17.86-13.15c-1.24-7.3 3.42-14.81 10.78-16.32a1 1 0 0 1 .61 1.88c-5.82 2.19-6.65 8.88-3.56 13.53a14.33 14.33 0 0 0 11.28 6.15c4.38.18 9.61-1.29 12-5.19a9.34 9.34 0 0 0-3.28-12.69zm-88.09 148.58c-6.68-.22-14.59-4.42-15.61-11.65-.88-6.29 3.25-12.65 9.6-13.84a1 1 0 0 1 .61 1.87c-9.2 3.62-1.81 14.22 4.78 15.49 3.2.61 7.6 0 10.12-2.26a7.55 7.55 0 0 0-1.21-11.86.05.05 0 0 1 0-.1c5.38 1 8.4 6.14 7.2 11.69-1.45 6.81-8.97 10.9-15.49 10.66zm148.57 32.03c29.41-8 59.2-14.86 88.85-21.92 14.42-3.43 28.93-6.42 43.32-10 14.2-3.56 29-8.63 43.62-9.47.56 0 .61.7.16.91-13.2 6.1-28.47 8.7-42.51 12.46-15.14 4.06-30 9-45 13.34-29.22 8.53-58 18.28-87.21 27-28.47 8.49-56.74 16.9-85.81 23s-56.63 19-85.76 23.4a.26.26 0 0 1-.16-.47c25.33-13 54.62-18.75 81.19-29.07a894 894 0 0 1 89.31-29.18zm91.86 157.88a244.88 244.88 0 0 1 56.6 2.15.57.57 0 0 1 .05 1.1 245.85 245.85 0 0 1-56.24 6.1c-18.44 0-38.34.61-56.55-2.41a.31.31 0 0 1 0-.6c17.94-4.28 37.72-5.07 56.14-6.34zm-199.1 13.47c30.54-5.91 64.06-2.07 94.72 1.57.55.06.41.87-.09.92-30.53 3.38-64.13 7-94.48.81-1.56-.31-1.86-2.97-.15-3.3zm-82.37-.14c10.51 0 21.15-.94 31 3.07.78.31.55 1.47-.15 1.71-11.28 3.93-23.94 1.83-35.68 1.15a338.33 338.33 0 0 1-35.7-3.66c-.31-.05-.24-.48 0-.52a366.65 366.65 0 0 1 40.53-1.75zM388 738.85c3.25.24 6.91.18 9.83 1.72a1.47 1.47 0 0 1-.23 2.67c-3.16 1-6.74.26-10-.09a30.31 30.31 0 0 1-10.38-2.5.68.68 0 0 1 .11-1.24c3.52-.98 7.04-.83 10.67-.56zm471-31.09a1.83 1.83 0 0 1-.29 3.33c-4 1.26-8.18 1.9-10.41 6-1.94 3.52-.2 8.43 2.49 11.21a9.74 9.74 0 0 0 10.84 2.09c3.46-1.39 4.7-4.78 7.73-6.48a.06.06 0 0 1 .08 0c3.59 4.46-3 11.31-6.71 13.41-6.6 3.74-14.42 1.67-19.26-3.87-5-5.74-4.9-13-.7-19.29 3.35-4.98 10.37-9.16 16.23-6.4zm-177.37 9.76a13.78 13.78 0 0 1 10.78-3.23 1.25 1.25 0 0 1 .11 2.49 15 15 0 0 0-8.13 3.61c-2.33 2-2.47 4-2.37 6.86.17 5.06 2.18 8.75 7.16 10.57 4.15 1.52 8.29 0 11.18-3.17 3.94-4.37 2.2-7.88 2-12.92a.94.94 0 0 1 1.37-.87c5.45 3.23 4.77 13.71 2.43 18.64-3.83 8.09-13.07 10.59-21.11 7.59-7.46-2.79-13.9-11.7-11.41-19.89 1.17-3.92 4.94-7.2 7.99-9.68zM540.48 730a13.78 13.78 0 0 1 10.78-3.23 1.25 1.25 0 0 1 .11 2.49 15 15 0 0 0-8.13 3.62c-2.33 2-2.47 4-2.37 6.86.17 5.06 2.18 8.75 7.15 10.56 4.16 1.52 8.3.06 11.19-3.16 3.94-4.37 2.2-7.88 2-12.93a1 1 0 0 1 1.37-.87c5.45 3.24 4.77 13.71 2.43 18.65-3.83 8.09-13.07 10.59-21.11 7.58-7.46-2.79-13.9-11.7-11.42-19.89 1.18-3.87 4.95-7.12 8-9.68zm-185.36 33.69a1 1 0 0 1 1.37-.87c5.45 3.24 4.76 13.71 2.43 18.65-3.84 8.09-13.08 10.59-21.11 7.58-7.46-2.79-13.9-11.7-11.42-19.89 1.19-3.91 5-7.16 8-9.68a13.77 13.77 0 0 1 10.78-3.23 1.25 1.25 0 0 1 .11 2.49 15 15 0 0 0-8.13 3.62c-2.33 2-2.47 4-2.37 6.86.17 5.06 2.18 8.75 7.15 10.56 4.16 1.52 8.29.06 11.19-3.16 3.95-4.37 2.21-7.88 2-12.93zM412 731.63a13.77 13.77 0 0 1 10.78-3.23 1.25 1.25 0 0 1 .11 2.49 15 15 0 0 0-8.14 3.61c-2.32 2-2.47 4-2.37 6.86.17 5.06 2.19 8.75 7.16 10.57 4.15 1.52 8.29.05 11.19-3.17 3.94-4.37 2.2-7.88 2-12.92a.94.94 0 0 1 1.37-.87c5.45 3.23 4.76 13.71 2.42 18.64-3.83 8.09-13.07 10.59-21.11 7.58-7.45-2.78-13.89-11.69-11.41-19.88 1.15-3.92 4.91-7.16 8-9.68zm513.1 279.05c0 .05-.05.09-.07.13q-1.1 2-2.08 4a64 64 0 0 0-3.93 7.07q-10.32-.93-20.59-2c1.3-1.86 2.58-3.74 3.87-5.61q3.21-3.79 6.37-7.67c4.62.39 9.24.77 13.87 1.07a7.62 7.62 0 0 1 3.63 1.18c-.36.59-.73 1.21-1.07 1.83zm17.79-23.74a100.7 100.7 0 0 1-20 1c1.27-1.84 2.48-3.7 3.68-5.57a105 105 0 0 1 16.43 3.24.68.68 0 0 1-.11 1.33zM185.53 307c9.48-6.81 19.07-13.27 28.57-19.31a576.56 576.56 0 0 1 91.6-46.85 335.33 335.33 0 0 0 32.55-20.66c13.81-10.12 24.38-21.6 33.92-34.39-1.06 23.95.35 48 1.82 72-.21 1.35-.39 2.7-.57 4-.93 0-1.9.07-2.88.13.33-.13.66-.24 1-.38a.38.38 0 0 0 0-.72c-22.6-4.63-51.17 3.89-73.12 9.48a392.56 392.56 0 0 0-72.15 26.39c-7 3.36-14 6.95-20.89 10.71-16.6 10.18-33 20.65-49.06 31.55q-4.94 3.71-9.89 7.54l-1.67 1.19c-8.92 7-17.76 14.1-26.8 21-8.14 8.32-15.96 16.82-24.27 25.18-.69.69-2-.14-1.47-1 12.73-19.55 31.54-35.92 48.83-51.34A463.32 463.32 0 0 1 185.53 307zM339 1397.22q2.39-7.48 4.53-15.06a535.61 535.61 0 0 1 102.78 31.32 407.51 407.51 0 0 0-107.77-13.87c.17-.8.31-1.61.46-2.39zm328.64-772.5l25.09 38.58a10.83 10.83 0 0 0 10 4.88l216.81-19.53a7.59 7.59 0 0 0 6-11.2l-40.71-74.34a10.8 10.8 0 0 0-12.36-5.23L672 613.26a7.59 7.59 0 0 0-4.36 11.46zm12.46-3.94c0-.09.09-.16.15-.1 5.57 5.08 10.6 11 15.76 16.5 3.39 3.64 8.62 8.05 10.87 12.93 29-5.36 59.06-7.61 88.45-10 32.83-2.69 65.66-4.65 98.57-3a.13.13 0 0 1 0 .25c-32.61 4.59-65.53 5.51-98.32 8.66-15.42 1.48-30.84 3.54-46.12 6.11-14.34 2.42-29.39 6.73-43.94 4.62a2.91 2.91 0 0 1-2.32-2.17c-4.82-4.08-8-11.6-11.68-16.66-4.01-5.48-8.59-10.92-11.42-17.14zm-334.42 795.58c4.34-3.1 10.5-2.51 15.58-1.86 3.41.43 2.73 5.6-.49 5.84-5.82.45-9.1 8.16-6.49 12.69 2.27 3.93 7.92 6.49 12.17 7 10 1.25 20.57-10.65 12.48-19.78a1 1 0 0 1 1.16-1.64c9.15 3.48 14.34 13.21 11.17 22.71-4.2 12.62-18.81 18.18-31.08 15.18-12.1-3-24.09-13.23-22.14-26.73.76-5.21 3.25-10.28 7.64-13.41zm408.13 326.74c18.52 10.14 34.67 24.89 51.21 38 17.52 13.82 37.68 26.53 52.44 43.25a.62.62 0 0 1-.71 1c-20.12-8-38.33-23.51-55.26-36.8s-35.32-27.37-48.15-44.89a.36.36 0 0 1 .47-.56zm-41.62-34.43c7.5 5.33 14.37 10.78 17.74 19.51a.84.84 0 0 1-1 1.07c-8-2.81-13.43-8-19.76-13.48-5.87-5-15.28-10.66-18.66-17.7-.06-.13 0-.32.16-.32 7.56.12 15.59 6.71 21.52 10.92zM478.53 1582c12.31 1.56 24 7.24 35.4 11.88 13.66 5.55 27.18 11.48 40.62 17.54 24.08 10.85 50.61 22.62 70.72 40 .52.45.05 1.51-.65 1.25-24.42-8.92-47.34-23.4-70.64-34.94-11.74-5.82-23.65-11.24-35.72-16.36-13.31-5.65-28.23-9.73-40.41-17.58a1 1 0 0 1 .68-1.79zm-235.61-23.75c17.92-5.09 36.87-7.54 55.41-8.83 33.63-2.34 76-.93 106.75 14.39a.36.36 0 0 1-.16.68c-17.13-.55-34.23-4.17-51.42-5.18a414.61 414.61 0 0 0-54.72.36c-18.65 1.37-36.88 4.74-55.2 8.33-16.49 3.24-32.23 9.63-48.9 11.81-.67.08-.82-.81-.37-1.15 13.97-10.61 31.93-15.66 48.61-20.41zm-93.04 36.38a.73.73 0 0 1 .62 1.31c-5 3.35-10.82 7.1-16.83 8.09a.78.78 0 0 1-.61-1.3c4.52-4.09 11.09-6.29 16.82-8.1zm-103.33 33.83c11.4-3.58 22.22-9.54 33.66-12.94a49 49 0 0 1 9.58-3.7.42.42 0 0 1 .44.68 41 41 0 0 1-7.34 7c-12.19 11.59-30.89 19.7-45.75 25.68-15.76 6.33-35.73 12.35-52.76 8.2-12-2.92-20.52-12.57-25.12-24.33a34.68 34.68 0 0 1-3.89-14.83 1.57 1.57 0 0 1 .25-.9c-1-11.3 1.36-22.72 7.48-31 .4-.54 1.2.09.93.65-6.66 13.74-3.57 28.93 4 41.62 9 15.11 24 16.81 40 14.07 12.89-2.24 26.06-6.29 38.52-10.2z"/></g></svg>