<svg xmlns="http://www.w3.org/2000/svg" viewBox="0 0 318 50"><defs><style>.a{fill:#454c5b;}</style></defs><path class="a" d="M35.36,9.06a7.87,7.87,0,0,1-.24,2.06c-2.12,0-2.83,1.59-2.83,6.82V41.65a6.73,6.73,0,0,1-2.07.29L10.39,16.07V32.68c0,5.42.72,7,3.32,7A6.35,6.35,0,0,1,14,41.8c-1.44-.1-3.36-.15-4.76-.15s-3.6.05-4.8.15a6.69,6.69,0,0,1,.24-2.07c2.6,0,3.32-1.63,3.32-7V12.85l-.2-.24c-.91-1.15-1.53-1.34-3.12-1.49a8.31,8.31,0,0,1-.24-2.06c1,.1,2.36.14,3.56.14a29.83,29.83,0,0,0,3.21-.14L29.84,33.83V17.94c0-5.23-.72-6.82-3.32-6.82a10.76,10.76,0,0,1-.24-2.06c1.4.1,3.17.14,4.52.14S34.06,9.16,35.36,9.06Z"/><path class="a" d="M36.57,30.66c0-6.53,4.46-11.42,10.85-11.42,6.81,0,10.85,4.61,10.85,11.42,0,6.58-4.37,11.43-10.85,11.43S36.57,37.57,36.57,30.66Zm16.89.58c0-5.95-3-9.7-6.52-9.7s-5.52,3.31-5.52,8.11c0,6.48,2.49,10.13,6.38,10.13S53.46,36.28,53.46,31.24Z"/><path class="a" d="M76.81,20.82a44,44,0,0,0-.33,5.67,9.69,9.69,0,0,1-2.74.43c-.14-3.07-1.1-3.75-2.35-3.75-1.68,0-4.08,3.08-4.08,6.82V34.6c0,4.17,1.24,5,4.27,5.13a6.35,6.35,0,0,1,.24,2.07c-1.49-.1-3.79-.15-6-.15s-5.09.05-6.33.15a6.09,6.09,0,0,1,.24-2.07c2.54-.14,3.31-1,3.31-4.17V26.05c0-2.25-.44-3.31-3.6-3.4a3,3,0,0,1,.43-1.78,20.51,20.51,0,0,0,6.43-1.63c.58.19,1.06.72,1.06,2.11a22.18,22.18,0,0,1-.63,4.7,12.47,12.47,0,0,1,1-2.49c1.39-2.21,3.31-3.89,5.81-3.89A5.13,5.13,0,0,1,76.81,20.82Z"/><path class="a" d="M113.61,19.52a4.9,4.9,0,0,1-.39,2.12c-1.43.38-2,1.34-3.55,6.05l-4.85,14a4.24,4.24,0,0,1-2.2.44c-2.07-5.28-4.52-11.19-6.72-16.18L89.61,41.65a3.53,3.53,0,0,1-2.11.44c-2.16-6.2-4.28-11.86-6.63-17.62-.72-1.78-1.3-2.4-2.69-2.83a6.35,6.35,0,0,1-.29-2.07c1.25.05,2.6.1,4.71.1s3.65-.05,5.28-.15a7.4,7.4,0,0,1-.24,2.12c-2.69.29-2.78,1.1-2.07,2.88C87,28,88.5,32.34,89.75,35.94L96,19.67A7.62,7.62,0,0,1,98,19.48c2,4.61,4.46,10.65,6.77,16.51l2.73-8.16c1.49-4.66.44-5.9-1.92-6.19a5.73,5.73,0,0,1-.43-2.12c1.2.1,2.88.15,4.27.15C111.11,19.67,112.51,19.62,113.61,19.52Z"/><path class="a" d="M115.32,39.73c2.54,0,3.31-1,3.31-4.17V26.05c0-2.25-.34-3.4-3.6-3.4a3,3,0,0,1,.43-1.78c1.44,0,5.28-.82,6.43-1.63.58.19,1.06.72,1.06,1.92v14.4c0,3.21.77,4.17,2.83,4.17A9,9,0,0,1,126,41.8c-1.68-.1-3.6-.15-5.42-.15s-3.94.05-5.52.15A7.32,7.32,0,0,1,115.32,39.73ZM117.57,11A2.86,2.86,0,0,1,120.4,8.1,2.77,2.77,0,0,1,123.29,11a2.87,2.87,0,0,1-2.89,2.78A2.77,2.77,0,0,1,117.57,11Z"/><path class="a" d="M153.09,41.8c-1.39-.1-3.26-.15-5.23-.15s-4.22.1-5.71.15a6.35,6.35,0,0,1,.24-2.07c2.3,0,3.31-1,3.31-4.17v-7.3c0-4.51-1.87-5.85-4.46-5.85s-5.43,2.16-5.43,8v5.14c0,3.21.82,4.17,3.31,4.17a6.26,6.26,0,0,1,.24,2.07c-1.34,0-3.74-.15-5.71-.15s-4.32.05-5.71.15a6.35,6.35,0,0,1,.24-2.07c2.5,0,3.31-1,3.31-4.17V26.05c0-2.25-.43-3.31-3.6-3.4a3.12,3.12,0,0,1,.43-1.78,20.57,20.57,0,0,0,6.44-1.63c.57.19,1.05.72,1.05,2.11a10.84,10.84,0,0,1-.34,2.83,10.85,10.85,0,0,1,.73-1.25,8.74,8.74,0,0,1,7-3.45c3.64,0,6.86,2,6.86,7.82v8.26c0,3.31.91,4.17,2.83,4.17A6.54,6.54,0,0,1,153.09,41.8Z"/><path class="a" d="M194.61,41.8c-1,0-3.93-.15-5.47-.15s-4.46.1-5.42.15a4.68,4.68,0,0,1,.33-2.07c2.64-.28,3-.81,1.73-3.74l-2.11-4.9c-4,0-8.88.05-12.68.2L169.7,34.6c-1.44,3.79-.91,4.94,1.73,5.13a5.52,5.52,0,0,1,.33,2.07c-1.1-.1-3-.15-4.56-.15s-3.07.1-4,.15a5.75,5.75,0,0,1,.33-2c1.73-.33,2.36-1.39,3.84-5.18l9.94-25.49a7.27,7.27,0,0,1,1.87-.19l11.43,26.21c1.58,3.6,2.21,4.36,3.69,4.6A6.35,6.35,0,0,1,194.61,41.8ZM182.76,28.93l-3.65-8.54c-.82-1.87-1.35-3-2.11-5.23-.72,2.25-1.3,3.74-1.83,5.18l-3.31,8.59Z"/><path class="a" d="M196.45,39.73c2.54,0,3.31-1,3.31-4.17V14.05c0-2.25-.34-3.41-3.6-3.41a3.09,3.09,0,0,1,.43-1.77c1.44,0,5.28-.82,6.44-1.63.57.19,1.05.72,1.05,1.92v26.4c0,3.21.77,4.17,2.83,4.17a8.47,8.47,0,0,1,.24,2.07c-1.68-.1-3.6-.15-5.42-.15s-3.94.05-5.52.15A7.7,7.7,0,0,1,196.45,39.73Z"/><path class="a" d="M231.33,38.39A7,7,0,0,1,231,40.6a14.85,14.85,0,0,0-5.47,1.49c-.67-.29-1.2-.58-1.2-2.79a11.82,11.82,0,0,1,.15-2A7.17,7.17,0,0,1,223,39.4a7.72,7.72,0,0,1-6,2.45c-4.32,0-6.87-2.16-6.87-8.55V26.05c0-2.25-.24-3.31-3.16-3.4a3.55,3.55,0,0,1,.33-1.78,18.49,18.49,0,0,0,6.1-1.63c.57.19,1.05.72,1.05,2.11v10.9c0,4.32,1,6.67,4,6.67,3.17,0,5.62-2.64,5.62-8.21v-4.9c0-2.25-.44-3.31-3.61-3.4a3.1,3.1,0,0,1,.34-1.78,20.29,20.29,0,0,0,6.53-1.39c.58.19,1.06.72,1.06,2.11V35.13C228.36,37.38,228.69,38.39,231.33,38.39Z"/><path class="a" d="M272.32,41.8c-1.44-.1-3.32-.15-5.24-.15s-4.12.05-5.71.15a6.35,6.35,0,0,1,.24-2.07c2.54-.14,3.31-1,3.31-4.17v-7.3c0-4.51-1.82-5.85-4.41-5.85s-5.33,2.16-5.33,8v5.14c0,3.31.91,4,3.36,4.17a6.54,6.54,0,0,1,.24,2.07c-1.63-.1-3.84-.15-5.71-.15s-4,.05-5.72.15a6.35,6.35,0,0,1,.24-2.07c2.55-.14,3.32-1,3.32-4.17V28c0-4.51-1.83-5.85-4.42-5.85s-5.33,2.16-5.33,8v5.38c0,3.21.82,4,3.36,4.17a6.54,6.54,0,0,1,.24,2.07c-1.63-.1-4-.15-5.71-.15s-4.18.05-5.71.15a6.09,6.09,0,0,1,.24-2.07c2.54-.14,3.31-1,3.31-4.17V26.05c0-2.25-.43-3.31-3.6-3.4a3,3,0,0,1,.43-1.78,19.73,19.73,0,0,0,6.19-1.63c.58.19,1.06.72,1.06,1.92a30.55,30.55,0,0,1-.19,3.07,6.93,6.93,0,0,1,.76-1.54,8.59,8.59,0,0,1,6.87-3.45c2.69,0,5.14,1.1,6.14,4a4.36,4.36,0,0,1,.2,1.2,5.41,5.41,0,0,1,.81-1.54,8.64,8.64,0,0,1,6.87-3.45c3.6,0,6.77,2,6.77,7.82v8.26c0,3.31.91,4,2.88,4.17A6.54,6.54,0,0,1,272.32,41.8Z"/><path class="a" d="M299.51,41.8c-1.39-.1-3.26-.15-5.23-.15s-4.23.1-5.71.15a6.09,6.09,0,0,1,.24-2.07c2.3,0,3.31-1,3.31-4.17v-7.3c0-4.51-1.87-5.85-4.47-5.85s-5.42,2.16-5.42,8v5.14c0,3.21.81,4.17,3.31,4.17a6.54,6.54,0,0,1,.24,2.07c-1.34,0-3.74-.15-5.71-.15s-4.32.05-5.71.15a6.09,6.09,0,0,1,.24-2.07c2.49,0,3.31-1,3.31-4.17V26.05c0-2.25-.43-3.31-3.6-3.4a3,3,0,0,1,.43-1.78,20.44,20.44,0,0,0,6.43-1.63c.58.19,1.06.72,1.06,2.11a10.84,10.84,0,0,1-.34,2.83,12.13,12.13,0,0,1,.72-1.25,8.77,8.77,0,0,1,7-3.45c3.65,0,6.87,2,6.87,7.82v8.26c0,3.31.91,4.17,2.83,4.17A6.54,6.54,0,0,1,299.51,41.8Z"/><path class="a" d="M301.72,39.73c2.54,0,3.31-1,3.31-4.17V26.05c0-2.25-.34-3.4-3.6-3.4a3,3,0,0,1,.43-1.78c1.44,0,5.28-.82,6.43-1.63.58.19,1.06.72,1.06,1.92v14.4c0,3.21.77,4.17,2.83,4.17a9,9,0,0,1,.24,2.07c-1.68-.1-3.6-.15-5.42-.15s-3.94.05-5.52.15A7.32,7.32,0,0,1,301.72,39.73ZM304,11A2.86,2.86,0,0,1,306.8,8.1,2.77,2.77,0,0,1,309.69,11a2.87,2.87,0,0,1-2.89,2.78A2.77,2.77,0,0,1,304,11Z"/></svg>